<?xml version="1.0" standalone="no"?>
<!DOCTYPE svg PUBLIC "-//W3C//DTD SVG 20010904//EN"
 "http://www.w3.org/TR/2001/REC-SVG-20010904/DTD/svg10.dtd">
<svg version="1.0" xmlns="http://www.w3.org/2000/svg"
 width="225.000000pt" height="225.000000pt" viewBox="0 0 225.000000 225.000000"
 preserveAspectRatio="xMidYMid meet">
<metadata>
Created by potrace 1.14, written by Peter Selinger 2001-2017
</metadata>
<g transform="translate(0.000000,225.000000) scale(0.100000,-0.100000)"
fill="#000000" stroke="none">
<path d="M1114 2132 c-6 -4 -13 -15 -17 -24 -3 -10 -15 -18 -25 -18 -11 0 -24
-6 -30 -13 -15 -17 1 -39 21 -31 23 9 23 -22 0 -35 -10 -5 -14 -13 -10 -17 8
-8 47 29 47 45 0 14 38 1 44 -15 4 -10 -2 -14 -19 -14 -14 0 -25 -4 -25 -8 0
-5 -10 -13 -23 -19 -17 -8 -31 -7 -57 6 -32 15 -49 46 -25 46 20 0 34 16 28
30 -5 16 -48 21 -57 7 -11 -18 -14 -62 -5 -67 5 -4 9 -11 9 -16 0 -6 -5 -7
-10 -4 -6 4 -17 2 -24 -4 -9 -8 -16 -3 -25 23 -14 35 -51 67 -51 43 0 -7 5
-18 10 -23 7 -7 -1 -11 -26 -11 -35 0 -54 -14 -54 -41 0 -8 5 -10 13 -6 6 4
-1 -6 -16 -22 l-28 -29 -20 24 c-15 18 -17 27 -8 37 8 10 7 17 -4 29 -20 19
-26 19 -49 -2 -18 -16 -18 -16 -12 0 5 13 2 16 -10 11 -9 -3 -16 -10 -16 -15
0 -5 -9 -18 -20 -29 -25 -25 -14 -55 21 -57 12 -1 26 -9 31 -17 10 -18 67 -48
79 -40 5 3 9 14 9 24 0 18 2 18 33 2 l32 -17 -37 -9 c-27 -7 -38 -15 -38 -28
0 -11 -4 -17 -9 -13 -5 3 -13 0 -17 -6 -3 -6 -1 -15 6 -19 9 -5 9 -9 1 -14 -6
-4 -11 -12 -11 -17 0 -6 5 -7 12 -3 6 4 8 3 5 -4 -4 -5 -15 -9 -25 -7 -9 2
-19 4 -22 4 -3 1 1 5 8 10 22 14 23 67 2 86 -16 14 -23 15 -34 6 -11 -9 -20
-9 -35 -2 -26 15 -50 4 -57 -25 -7 -26 -23 -31 -42 -12 -24 24 -19 2 8 -39 17
-25 26 -49 23 -61 -5 -19 -6 -19 -32 -4 -38 22 -54 12 -85 -52 -15 -31 -32
-54 -37 -50 -12 7 -39 -14 -39 -31 0 -8 12 -18 28 -23 15 -6 21 -11 15 -11 -7
-1 -13 -12 -13 -26 0 -18 5 -25 20 -25 14 0 20 7 20 23 l1 22 19 -24 c11 -13
20 -19 20 -14 0 5 -4 13 -10 19 -12 12 7 134 21 134 5 0 9 9 9 20 0 11 4 20 8
20 37 0 45 -90 10 -115 -18 -12 -23 -25 -23 -63 0 -41 -2 -47 -20 -44 -17 2
-17 1 -5 -8 13 -9 13 -12 -4 -25 -21 -16 -40 -10 -32 10 5 15 -12 35 -32 35
-9 0 -13 -7 -9 -20 3 -12 1 -18 -5 -14 -6 4 -8 -3 -6 -16 2 -15 11 -24 27 -27
25 -3 53 -32 45 -45 -3 -5 -19 -8 -35 -8 -17 0 -28 -4 -25 -9 4 -5 0 -12 -6
-15 -7 -3 1 -3 17 0 28 5 29 4 12 -9 -23 -19 -31 -63 -15 -74 34 -21 73 1 61
34 -4 11 -1 14 12 12 12 -3 19 -13 19 -30 1 -19 -3 -25 -15 -22 -19 5 -34 -26
-19 -41 18 -18 11 -29 -15 -24 -13 3 -22 1 -19 -3 3 -5 -2 -9 -10 -9 -8 0 -18
5 -21 10 -5 8 -12 7 -22 -2 -9 -7 -18 -12 -20 -10 -14 10 -13 -2 2 -18 18 -20
18 -21 0 -34 -18 -13 -18 -14 3 -20 13 -4 19 -13 15 -22 -3 -9 2 -14 17 -14
11 0 18 4 15 10 -3 5 0 7 8 4 8 -3 17 2 20 10 4 9 15 16 25 16 25 0 66 45 59
64 -4 9 -14 16 -24 16 -22 0 -5 17 22 22 14 2 20 -3 21 -17 1 -12 7 -31 13
-44 10 -18 10 -22 -1 -20 -28 3 -39 -2 -47 -23 -5 -15 -4 -26 2 -30 8 -4 5 -9
-6 -14 -25 -9 -22 -56 4 -73 17 -10 19 -15 9 -21 -11 -7 -11 -11 0 -25 7 -9
16 -12 19 -8 10 14 61 33 61 23 0 -6 7 -10 16 -10 8 0 12 5 9 10 -3 6 -2 10 3
10 19 0 22 -31 4 -37 -29 -11 -59 -45 -44 -50 6 -3 12 -9 12 -14 0 -6 -6 -7
-12 -3 -8 5 -8 1 1 -10 9 -11 22 -15 37 -12 19 5 21 3 16 -16 -3 -13 1 -25 12
-33 9 -7 15 -23 14 -36 -2 -18 2 -25 20 -27 16 -2 22 2 22 15 1 17 1 17 14 1
17 -22 52 -23 60 -2 4 11 -1 18 -14 21 -11 3 -20 12 -20 21 0 8 -3 13 -6 9 -3
-3 -17 5 -30 18 -24 24 -32 41 -14 30 6 -3 10 0 10 8 0 25 -14 28 -26 6 l-11
-22 -22 22 c-11 11 -23 21 -26 21 -3 0 -8 0 -11 0 -4 0 -1 7 6 16 9 10 26 14
49 12 29 -3 39 -10 53 -37 21 -41 32 -49 63 -43 16 3 27 -2 35 -17 8 -16 17
-20 31 -16 12 4 19 2 17 -5 -2 -7 3 -15 10 -17 7 -3 12 4 12 16 0 12 4 21 8
21 5 0 14 15 21 33 12 30 15 32 60 30 53 -2 74 -5 81 -14 3 -3 14 -11 25 -18
18 -11 18 -12 -5 -5 -39 11 -129 17 -148 9 -14 -5 -14 -7 -2 -16 13 -8 13 -11
-2 -20 -10 -5 -18 -17 -18 -24 0 -8 -4 -15 -10 -15 -15 0 -12 -27 3 -33 9 -3
12 -16 9 -36 -2 -19 0 -31 7 -31 6 0 11 7 11 15 0 8 5 15 10 15 6 0 10 -9 10
-20 0 -12 9 -22 24 -26 32 -8 48 3 41 26 -5 15 -1 17 29 13 32 -4 36 -2 42 22
5 22 1 32 -21 51 -22 18 -24 24 -11 24 10 0 15 5 11 13 -4 6 3 1 16 -13 14
-17 23 -21 26 -12 6 17 43 15 43 -3 0 -9 -6 -12 -15 -9 -8 4 -15 1 -15 -5 0
-18 28 -13 42 8 13 18 58 38 58 26 0 -3 -11 -18 -25 -33 -31 -32 -29 -66 3
-70 26 -4 42 25 21 39 -11 7 -9 10 8 15 13 4 20 10 17 15 -3 5 -1 9 4 9 15 0
9 34 -8 42 -11 5 -8 7 9 7 16 1 22 -3 18 -14 -4 -8 5 -23 19 -34 14 -11 24
-26 22 -33 -3 -8 -9 -5 -17 10 -14 27 -26 28 -28 3 -1 -11 5 -22 13 -25 9 -3
12 -11 9 -16 -5 -8 -11 -7 -21 1 -12 10 -17 8 -28 -6 -11 -16 -11 -21 4 -38
24 -25 52 -18 70 18 l14 30 6 -30 7 -30 7 26 c4 14 6 30 4 35 -2 5 7 20 20 34
20 22 22 22 22 4 0 -52 59 -84 80 -44 6 12 21 20 35 20 16 0 25 6 25 15 0 8 5
15 10 15 6 0 10 -7 10 -15 0 -8 9 -15 20 -15 19 0 24 10 21 38 -1 8 5 20 15
26 11 8 15 21 12 34 -5 17 -1 20 19 19 15 -1 30 5 37 16 9 15 6 23 -21 47 -18
17 -33 31 -33 34 0 10 63 14 86 6 31 -12 50 -4 35 14 -8 10 -5 18 9 31 21 19
26 45 11 60 -5 6 -11 24 -13 40 -4 37 -41 47 -64 18 -10 -12 -9 -7 3 20 20 45
32 46 61 7 13 -16 31 -30 42 -30 18 0 25 -11 21 -33 -1 -4 8 -3 19 3 13 7 20
7 20 0 0 -5 5 -10 10 -10 6 0 10 9 10 20 0 11 5 19 11 17 22 -4 20 21 -3 29
l-23 7 24 9 c24 8 24 9 5 27 -14 14 -24 16 -38 9 -13 -7 -26 -6 -42 2 -21 12
-22 15 -9 40 8 15 11 31 7 36 -4 5 0 3 8 -3 19 -15 35 -5 42 25 7 25 -17 56
-35 46 -9 -5 -9 -4 -1 5 9 10 17 10 32 2 15 -8 23 -8 28 1 4 7 3 8 -4 4 -7 -4
-12 -3 -12 3 0 10 -38 27 -52 23 -5 -1 -8 7 -8 18 0 11 -5 20 -12 20 -26 0 5
14 35 16 45 2 44 2 49 27 5 27 -16 51 -38 43 -8 -3 -14 -14 -12 -23 2 -14 -4
-18 -29 -20 -29 -1 -32 1 -22 18 7 14 7 19 -2 17 -7 -2 -15 5 -17 15 -6 29 7
67 23 67 17 0 20 -16 5 -25 -5 -3 -10 -12 -10 -18 0 -7 7 -4 14 6 17 22 26 22
26 -2 0 -27 15 -34 34 -15 12 11 13 20 6 34 -7 13 -6 19 6 24 25 10 14 51 -13
50 -16 -1 -23 4 -23 18 0 10 -6 21 -14 24 -8 3 -12 13 -8 26 7 27 -36 62 -55
46 -7 -6 -13 -7 -13 -3 0 4 -6 2 -14 -4 -12 -10 -17 -8 -26 9 -10 18 -7 25 14
47 28 28 32 38 16 48 -5 3 -10 1 -10 -4 0 -23 -26 -9 -37 19 -12 32 -39 40
-61 18 -9 -9 -15 -9 -23 -1 -6 6 -19 8 -30 6 -23 -6 -36 -43 -19 -53 9 -6 9
-9 -1 -12 -12 -4 -11 -8 1 -24 14 -18 14 -18 -3 -5 -9 7 -17 19 -16 25 3 24
-2 37 -11 31 -5 -3 -10 1 -10 10 0 16 -38 37 -52 28 -5 -2 -8 3 -8 11 0 9 6
16 14 16 8 0 16 7 20 15 9 24 24 17 19 -9 -3 -13 -1 -26 5 -30 15 -9 72 17 78
36 3 11 15 18 30 18 15 0 24 6 24 15 0 8 6 15 13 15 8 1 6 5 -4 13 -9 7 -19
22 -23 35 -4 12 -10 22 -14 23 -50 6 -71 3 -80 -11 -6 -10 -7 -23 -2 -30 6 -9
2 -20 -12 -31 -28 -25 -56 -7 -50 31 5 32 -18 50 -56 44 -19 -3 -22 -1 -17 16
3 11 3 20 -2 20 -13 -1 -43 -26 -43 -37 0 -11 -62 -45 -69 -38 -2 3 1 10 6 17
16 21 21 54 11 72 -10 18 -58 22 -58 5 0 -6 -7 -3 -16 5 -18 19 -36 20 -51 5
-9 -9 -11 -7 -7 7 6 23 -17 56 -32 46z m106 -94 c0 -5 9 -8 20 -5 14 4 20 0
20 -12 0 -27 -70 -52 -100 -36 -12 7 -19 15 -13 18 5 3 15 2 23 -4 21 -12 40
-11 40 3 0 6 -3 8 -6 5 -9 -9 -44 11 -44 26 0 7 14 13 30 14 17 1 30 -3 30 -9z
m-360 -81 c0 -19 -27 -53 -36 -44 -8 8 15 57 28 57 4 0 8 -6 8 -13z m40 -17
c0 -31 -15 -31 -16 1 -1 16 2 26 7 23 5 -3 9 -14 9 -24z m455 21 c3 -5 1 -12
-5 -16 -5 -3 -10 1 -10 9 0 18 6 21 15 7z m-215 -9 c0 -8 10 -10 68 -13 16 -2
29 -8 29 -16 0 -13 -27 -14 -37 -2 -3 4 -15 9 -28 13 -15 5 -24 3 -28 -8 -3
-9 -10 -13 -15 -10 -17 10 -37 -16 -34 -42 4 -36 20 -50 39 -35 15 13 11 45
-4 36 -5 -3 -12 0 -16 6 -4 7 -3 9 3 6 6 -4 16 0 23 8 14 17 40 20 40 6 0 -5
-6 -12 -12 -15 -9 -3 -8 -8 5 -16 15 -10 16 -13 2 -26 -18 -18 -20 -34 -4 -34
13 0 8 -38 -12 -85 -14 -33 -16 -40 -18 -55 0 -5 -12 -10 -25 -10 -20 0 -23
-4 -19 -22 4 -21 3 -22 -7 -4 -17 25 -32 1 -19 -31 5 -13 5 -23 0 -23 -8 0
-12 -13 -24 -80 -2 -8 -9 -26 -16 -38 -7 -13 -10 -27 -6 -30 3 -3 9 4 12 17 6
22 7 23 19 7 12 -17 13 -16 24 3 13 26 27 27 33 4 3 -16 8 35 9 110 0 15 5 27
10 27 6 0 8 -13 6 -30 -3 -16 -1 -30 3 -30 4 0 5 -8 2 -19 -2 -10 2 -38 11
-62 8 -24 15 -36 16 -26 0 10 5 15 10 12 10 -6 15 9 10 30 -1 6 -10 51 -20
100 l-17 90 25 48 c14 27 38 55 54 63 31 16 74 18 83 4 4 -6 -6 -10 -22 -10
-25 0 -72 -19 -49 -20 6 0 2 -6 -8 -13 -14 -10 -15 -17 -7 -40 9 -23 16 -28
37 -25 15 2 32 11 38 21 9 15 7 22 -12 37 l-23 19 25 7 c15 3 32 1 40 -5 7 -6
20 -9 28 -6 9 4 18 -1 21 -9 4 -9 13 -16 22 -16 8 0 15 -5 15 -11 0 -6 10 -8
23 -5 12 3 16 3 9 0 -8 -4 -5 -11 10 -24 13 -10 20 -22 15 -26 -4 -4 -14 2
-23 14 -16 23 -34 29 -34 12 0 -5 6 -10 14 -10 23 0 37 -62 16 -75 -5 -3 -7 0
-4 9 8 22 -29 39 -51 23 -23 -18 -16 -58 13 -68 18 -7 28 -4 48 16 13 13 24
33 24 45 0 11 4 20 9 20 20 0 3 -72 -28 -115 -37 -52 -27 -60 16 -12 16 18 34
32 40 30 6 -2 13 6 16 19 3 16 5 13 6 -11 l1 -35 20 22 c34 37 59 25 33 -15
-16 -24 -16 -26 1 -39 16 -11 23 -10 47 7 l29 20 0 -24 c0 -20 -4 -24 -19 -20
-16 4 -19 1 -14 -16 6 -24 -12 -29 -21 -5 -6 17 -51 16 -51 -1 0 -19 -16 -35
-28 -28 -22 13 -87 10 -87 -5 0 -7 5 -10 10 -7 22 14 75 -9 118 -52 25 -24 39
-43 31 -41 -9 2 -14 -5 -13 -19 1 -13 -3 -20 -7 -17 -5 3 -9 15 -9 27 0 29 -9
40 -43 55 -25 11 -30 9 -54 -14 l-26 -26 20 -20 c26 -25 63 -17 63 15 1 20 2
21 14 4 7 -9 12 -29 10 -44 -1 -15 3 -31 9 -35 9 -5 9 -10 1 -18 -9 -9 -18 -5
-38 15 -21 21 -29 24 -46 15 -11 -6 -20 -17 -20 -25 0 -18 37 -38 59 -32 9 2
23 -3 30 -11 12 -13 12 -14 0 -10 -16 5 -38 -19 -38 -42 0 -12 2 -11 13 3 13
17 14 16 19 -3 3 -11 2 -18 -2 -16 -4 3 -18 -5 -32 -18 -34 -32 -51 -36 -100
-25 -64 15 -75 27 -48 56 22 22 46 32 34 14 -3 -6 5 -19 17 -30 23 -22 63 -27
87 -12 12 8 12 11 0 26 -39 47 -60 65 -70 59 -8 -4 -9 1 -5 17 7 23 7 24 -9 4
-8 -11 -27 -33 -41 -48 -26 -27 -27 -27 -53 -11 -42 27 -81 66 -82 83 0 12 -2
12 -6 3 -6 -16 19 -45 70 -83 l38 -28 -41 -26 c-81 -51 -212 -71 -289 -44
l-33 12 38 38 c21 21 35 41 32 44 -6 7 -14 -1 -49 -47 -25 -35 -35 -35 -86 -1
l-42 27 50 34 c27 19 47 37 45 39 -2 2 -26 -12 -52 -32 l-48 -37 -45 48 c-24
27 -36 37 -28 23 15 -26 15 -27 -4 -22 -25 7 -49 -14 -49 -43 0 -32 -26 -21
-39 17 -9 27 -8 31 17 40 45 17 55 45 20 58 -18 7 -29 4 -49 -15 -24 -23 -27
-24 -40 -8 -12 16 -12 17 2 12 12 -5 15 2 15 35 0 23 5 42 12 45 7 2 12 -3 12
-11 0 -15 20 -27 46 -27 8 0 14 6 14 14 0 8 5 16 12 18 22 8 -37 57 -60 51
-30 -7 -62 -41 -56 -58 4 -8 2 -15 -3 -15 -16 0 -11 34 9 63 19 26 78 59 100
54 6 -1 13 4 15 10 3 9 -9 12 -42 11 -35 -2 -50 2 -60 15 -15 21 -33 22 -56 1
-15 -14 -17 -14 -15 2 0 9 -5 19 -11 21 -7 3 -13 -2 -13 -11 0 -9 -5 -16 -11
-16 -7 0 -9 -9 -6 -21 6 -24 -11 -21 -27 4 -8 12 -7 20 3 29 11 11 12 10 6 -1
-5 -9 -3 -12 6 -9 8 2 15 17 17 31 3 28 20 35 39 16 11 -11 53 -4 53 9 -1 36
-64 52 -80 21 -13 -24 -26 -24 -39 -1 -7 13 -4 23 14 40 l23 22 -5 -22 c-4
-20 -1 -19 25 10 33 36 49 42 30 12 -16 -26 -2 -39 17 -14 9 11 14 14 15 6 0
-7 9 -22 20 -34 l20 -22 1 35 c1 31 2 32 9 9 4 -14 8 -21 9 -16 1 6 9 1 20
-10 30 -31 61 -54 61 -46 0 4 -13 26 -28 48 -28 40 -42 104 -23 104 6 0 11
-10 11 -22 0 -44 51 -73 88 -49 18 11 11 51 -11 65 -15 9 -22 7 -38 -13 l-19
-23 0 26 c0 14 9 35 21 47 11 11 19 23 16 25 -3 3 -14 -7 -25 -21 -12 -15 -23
-21 -27 -15 -3 5 -1 10 4 10 6 0 11 7 11 15 0 8 7 15 15 15 26 0 29 2 51 27
15 17 33 26 60 27 56 3 68 -3 43 -23 -30 -24 -18 -61 20 -61 15 0 32 5 39 12
15 15 16 58 2 58 -5 0 -10 -11 -10 -25 0 -14 -4 -25 -9 -25 -10 0 -8 46 2 56
12 12 -4 24 -33 24 -16 0 -32 5 -35 10 -9 15 40 12 79 -4 20 -8 39 -27 49 -49
9 -19 23 -37 31 -40 16 -7 15 8 -3 42 -7 13 -17 37 -21 52 -7 23 -5 29 7 29
11 0 13 5 7 18 -4 9 -7 27 -7 40 1 12 -3 22 -8 22 -5 0 -9 5 -9 10 0 6 12 10
26 10 20 0 25 4 20 17 -7 17 9 33 32 33 6 0 12 -4 12 -8z m274 -15 c6 -9 7
-19 3 -23 -9 -9 -37 15 -37 33 0 18 20 12 34 -10z m-719 4 c3 -5 1 -12 -5 -16
-5 -3 -10 1 -10 9 0 18 6 21 15 7z m301 -3 c12 -8 34 -6 52 5 6 5 12 4 12 0 0
-5 -13 -17 -30 -26 -27 -16 -30 -17 -30 -2 0 12 -6 15 -20 10 -14 -4 -20 -2
-20 8 0 15 16 17 36 5z m284 -5 c0 -7 -4 -13 -9 -13 -5 0 -11 6 -14 13 -3 8 1
14 9 14 8 0 14 -6 14 -14z m280 1 c0 -8 -5 -12 -10 -9 -6 4 -8 11 -5 16 9 14
15 11 15 -7z m-645 -43 c3 -5 -2 -17 -11 -26 -13 -13 -19 -13 -32 -3 -13 11
-15 10 -9 -4 7 -19 0 -23 -20 -10 -9 6 -8 12 6 24 14 11 22 13 30 5 7 -7 12
-6 17 6 7 19 11 21 19 8z m455 -39 c0 -1 -9 2 -20 8 -11 6 -20 15 -20 20 0 6
9 2 20 -7 11 -10 20 -19 20 -21z m-405 4 c-9 -13 -23 -27 -31 -30 -9 -3 -12
-11 -8 -17 5 -8 3 -9 -5 -5 -7 5 -25 3 -41 -4 -16 -7 -35 -10 -42 -7 -9 3 -6
7 7 12 41 14 71 31 95 53 33 29 45 28 25 -2z m451 3 c9 -15 -23 -10 -35 5 -10
12 -8 13 9 9 11 -3 23 -9 26 -14z m-94 -21 l31 -21 -23 -9 c-13 -5 -25 -6 -28
-3 -3 3 1 5 8 5 8 0 5 7 -8 19 -41 35 -25 42 20 9z m-687 -7 c3 -5 2 -12 -3
-15 -5 -3 -9 1 -9 9 0 17 3 19 12 6z m975 -11 c-7 -14 -7 -20 0 -20 5 0 10 -7
10 -15 0 -18 -5 -18 -31 -4 -20 10 -20 11 3 34 28 30 32 31 18 5z m-810 -2 c0
-6 -3 -8 -7 -5 -3 4 -12 2 -20 -4 -13 -11 -19 2 -6 14 11 11 33 8 33 -5z m675
2 c8 -13 -5 -13 -25 0 -13 8 -13 10 2 10 9 0 20 -4 23 -10z m-817 -36 c-29
-17 -38 -17 -38 -3 0 21 33 39 48 26 11 -8 9 -13 -10 -23z m742 18 c0 -4 -9
-8 -20 -9 -11 -1 -20 2 -20 8 0 5 9 9 20 9 11 0 20 -4 20 -8z m-50 -42 c0 -5
-2 -10 -4 -10 -3 0 -8 5 -11 10 -3 6 -1 10 4 10 6 0 11 -4 11 -10z m-582 -32
c-7 -12 -19 -27 -26 -31 -7 -5 -11 -18 -8 -30 3 -12 3 -16 0 -9 -3 6 -12 12
-20 12 -11 0 -9 6 7 23 11 12 28 32 36 45 20 29 29 21 11 -10z m653 15 c13
-16 12 -17 -3 -4 -10 7 -18 15 -18 17 0 8 8 3 21 -13z m142 -77 c15 -9 25 -21
22 -27 -4 -5 -13 -3 -21 6 -9 8 -19 15 -24 15 -15 0 -67 56 -75 80 -6 21 -1
19 31 -16 22 -23 52 -49 67 -58z m-5 57 c4 -6 16 -13 27 -16 19 -4 19 -5 -1
-6 -12 0 -32 8 -45 18 -20 16 -21 19 -6 17 10 -1 22 -7 25 -13z m-853 -2 c-6
-5 -21 -12 -35 -15 l-25 -7 25 15 c28 17 50 21 35 7z m-85 -52 c0 -18 -35 -5
-38 14 -3 16 -1 17 17 7 12 -6 21 -15 21 -21z m1030 -4 c-10 -12 -16 -13 -27
-3 -12 10 -11 13 9 24 26 14 37 1 18 -21z m90 5 c0 -11 3 -20 8 -20 9 0 29
-63 24 -78 -6 -18 -26 -14 -56 9 -15 12 -23 25 -19 32 4 7 6 20 5 30 -4 19 14
47 29 47 5 0 9 -9 9 -20z m-1050 -10 c0 -5 -7 -10 -16 -10 -8 0 -13 -4 -10 -9
4 -5 -3 -7 -15 -4 -20 5 -20 6 3 18 29 16 38 18 38 5z m958 -32 c25 -25 13
-38 -17 -20 -20 11 -26 19 -18 24 16 10 21 10 35 -4z m-1013 -7 c-15 -14 -55
-23 -55 -13 0 15 12 22 39 22 15 0 21 -4 16 -9z m788 -51 c-6 -7 -23 23 -23
40 0 8 6 4 13 -10 8 -14 12 -27 10 -30z m-999 12 c3 -5 -1 -9 -9 -9 -8 0 -15
4 -15 9 0 4 4 8 9 8 6 0 12 -4 15 -8z m1416 4 c0 -2 -7 -7 -16 -10 -8 -3 -12
-2 -9 4 6 10 25 14 25 6z m-196 -21 c3 -9 11 -15 18 -14 30 4 38 -2 38 -27 0
-26 -1 -26 -22 -10 -13 9 -31 19 -40 23 -10 3 -18 14 -18 24 0 23 16 25 24 4z
m110 -183 c-1 -1 -16 -7 -33 -12 l-33 -9 17 26 c17 25 17 26 -4 20 -22 -5 -25
0 -15 28 6 14 12 11 38 -17 17 -18 31 -34 30 -36z m-1220 1 l18 -22 -33 9
c-19 6 -36 10 -38 10 -3 0 4 6 15 14 10 8 19 14 19 13 0 -1 9 -12 19 -24z m43
0 c-4 -3 -2 -12 5 -20 8 -11 7 -12 -6 -7 -18 7 -22 34 -4 34 6 0 8 -3 5 -7z
m1076 -55 c-8 -24 -15 -56 -14 -73 1 -23 -1 -27 -9 -15 -11 16 -5 58 13 103
19 44 28 31 10 -15z m77 12 c0 -5 -4 -10 -10 -10 -5 0 -10 5 -10 10 0 6 5 10
10 10 6 0 10 -4 10 -10z m-1118 -37 c5 -17 4 -41 -1 -55 -9 -22 -10 -21 -10 9
-1 17 -6 44 -11 58 -8 20 -7 26 2 23 7 -3 16 -18 20 -35z m1118 -8 c-13 -14
-26 -23 -28 -20 -5 5 36 45 46 45 3 0 -5 -11 -18 -25z m-1170 -1 c0 -8 -4 -12
-10 -9 -5 3 -10 1 -10 -6 0 -7 -3 -9 -6 -6 -4 4 -1 13 6 22 16 19 20 19 20 -1z
m1225 -21 c-3 -8 -5 -19 -5 -24 0 -5 -8 -9 -19 -9 -19 0 -25 29 -8 41 16 11
38 6 32 -8z m-108 -15 c-3 -8 -6 -5 -6 6 -1 11 2 17 5 13 3 -3 4 -12 1 -19z
m-1115 -17 c-5 -3 -12 -13 -15 -21 -3 -9 -6 -4 -6 12 -1 21 3 26 15 21 9 -3
11 -9 6 -12z m1176 -53 c14 -17 13 -18 -13 -18 -20 0 -26 4 -22 15 4 8 1 17
-5 21 -7 4 -6 9 3 15 9 5 15 4 18 -4 2 -7 10 -20 19 -29z m-56 2 c5 -31 -6
-41 -16 -15 -5 13 1 45 9 45 1 0 5 -13 7 -30z m-1110 -20 c-7 -19 -10 -21 -15
-7 -8 22 3 51 15 39 5 -5 5 -19 0 -32z m1032 24 c3 -8 2 -12 -4 -9 -6 3 -10
10 -10 16 0 14 7 11 14 -7z m-924 -115 c10 -23 15 -27 22 -17 7 9 8 7 3 -7 -4
-11 -8 -30 -10 -43 -4 -37 -15 -38 -15 -1 0 36 -31 106 -56 125 -7 6 -11 14
-7 18 9 9 48 -37 63 -75z m44 25 c15 -15 64 -19 81 -6 6 4 15 17 20 30 10 23
10 23 31 4 111 -103 285 -131 419 -67 33 16 64 31 68 33 4 2 6 -2 5 -10 -2 -7
3 -12 10 -10 7 1 15 -5 18 -13 4 -8 15 -15 25 -15 10 0 19 -7 19 -15 0 -8 6
-15 13 -16 9 0 9 -2 0 -6 -18 -7 -16 -23 2 -23 8 0 15 -5 15 -11 0 -6 9 -8 21
-4 18 6 19 5 7 -14 -13 -21 -38 -29 -38 -12 0 5 -8 8 -17 7 -27 -4 -29 -52 -3
-66 24 -13 40 -6 40 20 0 10 7 21 16 24 25 9 29 -1 9 -20 -15 -15 -15 -18 -1
-26 19 -11 11 -34 -15 -41 -13 -3 -19 0 -19 10 0 11 -7 14 -22 10 -13 -3 -34
-8 -48 -11 -25 -6 -25 -6 -2 5 27 15 28 25 3 32 -14 3 -19 12 -17 30 2 20 -2
27 -21 32 -13 3 -22 9 -19 13 2 4 -2 18 -9 32 -15 28 -19 22 -29 -41 -8 -43
-35 -72 -56 -59 -10 6 -22 2 -38 -13 -22 -20 -23 -20 -16 -2 7 18 6 18 -9 7
-29 -24 -105 -23 -90 1 3 5 2 8 -3 4 -12 -7 -74 19 -74 31 0 5 11 7 25 5 19
-4 27 0 36 21 11 23 10 28 -7 41 -26 19 -44 19 -60 -2 -18 -25 -17 -63 3 -85
19 -21 5 -24 -21 -5 -11 8 -20 31 -23 60 -7 62 -19 68 -33 17 -9 -32 -15 -40
-28 -35 -25 7 -23 -42 2 -61 11 -8 15 -14 9 -14 -7 0 -15 5 -18 10 -8 12 -45
13 -45 1 0 -5 15 -12 33 -16 17 -4 27 -9 20 -12 -6 -2 -29 0 -50 6 -25 7 -39
7 -41 1 -6 -16 -38 -12 -53 7 -11 13 -11 17 -1 20 14 5 16 33 2 33 -5 0 -10 5
-10 11 0 6 7 8 16 5 11 -4 14 -1 12 12 -3 11 7 23 27 34 29 17 29 18 8 24 -13
3 -20 10 -18 15 3 4 13 5 22 2 11 -4 14 -3 9 6 -5 7 3 15 23 22 36 13 43 35 9
25 -66 -20 -85 -18 -120 13 -20 17 -37 28 -40 25 -3 -2 -3 8 0 23 5 26 5 27
13 4 5 -12 15 -29 23 -37z m1051 36 c3 -5 1 -10 -4 -10 -6 0 -11 5 -11 10 0 6
2 10 4 10 3 0 8 -4 11 -10z m-190 -46 c-24 -46 -33 -94 -17 -94 4 0 16 -14 26
-31 18 -30 18 -31 0 -27 -10 2 -20 12 -22 23 -2 11 -11 28 -20 38 -12 14 -13
24 -4 55 10 33 44 82 57 82 2 0 -7 -21 -20 -46z m-947 -60 c0 -19 -4 -36 -9
-39 -4 -3 -7 10 -6 29 3 35 -9 83 -19 73 -3 -3 -1 -14 4 -24 7 -12 7 -25 1
-34 -6 -10 -9 -7 -9 14 0 16 -4 26 -10 22 -5 -3 -10 3 -10 15 0 12 5 18 10 15
6 -3 10 0 10 7 0 7 9 0 19 -16 10 -16 19 -44 19 -62z m980 7 c-1 -27 -6 -47
-10 -45 -8 5 -9 46 -1 77 8 32 13 17 11 -32z m-1046 -8 c6 -12 15 -20 20 -17
4 3 8 0 8 -6 0 -7 -8 -9 -19 -5 -11 3 -23 0 -27 -7 -13 -21 -25 42 -12 66 9
16 12 18 15 6 3 -8 9 -25 15 -37z m1133 20 c3 -10 2 -19 -4 -21 -5 -2 -7 -10
-4 -18 7 -19 -11 -18 -28 3 -11 13 -11 17 -1 20 6 3 12 11 12 19 0 20 17 18
25 -3z m-68 -15 c-3 -8 -6 -5 -6 6 -1 11 2 17 5 13 3 -3 4 -12 1 -19z m-976
-91 c-18 -18 -25 2 -10 30 14 26 14 26 17 4 2 -13 -1 -28 -7 -34z m850 10
c-10 -9 -11 -8 -5 6 3 10 9 15 12 12 3 -3 0 -11 -7 -18z m-791 -28 c16 -28 12
-31 -15 -12 -13 10 -25 23 -25 30 0 17 28 5 40 -18z m840 19 c0 -7 -12 -21
-25 -31 -24 -17 -24 -17 -18 0 5 16 31 43 40 43 2 0 3 -6 3 -12z m43 -104
c-21 -13 -41 -24 -45 -24 -15 0 -59 -50 -53 -59 3 -6 -1 -11 -9 -11 -9 0 -30
-9 -48 -19 -35 -22 -48 -19 -48 10 0 10 -4 19 -10 19 -5 0 -10 5 -10 11 0 8 4
8 14 0 12 -10 18 -7 32 14 14 22 24 26 50 23 30 -3 34 0 47 34 18 45 70 66
100 40 16 -14 15 -17 -20 -38z m-545 21 c-3 -3 -9 2 -12 12 -6 14 -5 15 5 6 7
-7 10 -15 7 -18z m220 -16 c36 -3 53 -14 51 -36 -1 -3 6 -10 15 -15 17 -10 22
-48 6 -48 -5 0 -10 6 -10 14 0 8 -10 22 -22 30 -19 14 -20 16 -5 16 10 0 15 5
12 10 -3 6 -33 10 -65 10 -32 0 -62 -4 -65 -10 -7 -12 -25 -13 -25 -2 0 9 52
42 60 37 4 -2 25 -5 48 -6z m-159 -20 c-10 -6 -11 -9 -1 -9 6 0 12 -5 12 -11
0 -8 -4 -8 -14 1 -16 13 -10 44 6 34 6 -4 5 -10 -3 -15z m-249 -20 c0 -5 -7
-6 -15 -3 -8 4 -15 13 -15 21 0 13 3 13 15 3 8 -7 15 -16 15 -21z m527 18 c2
-2 -3 -10 -11 -16 -12 -10 -17 -8 -25 8 -10 17 -8 19 10 16 12 -3 23 -6 26 -8z
m-369 -34 c-19 -5 -31 -30 -21 -45 3 -6 2 -8 -4 -5 -5 3 -10 0 -10 -7 0 -8 9
-11 23 -8 21 4 22 2 11 -21 -7 -16 -18 -24 -29 -22 -10 2 -18 -2 -18 -8 0 -8
-4 -7 -9 2 -6 9 -6 22 0 34 6 10 8 23 6 30 -2 7 -11 -1 -20 -18 -11 -20 -16
-24 -17 -12 0 9 9 26 20 37 11 11 20 27 20 35 0 10 10 15 33 14 17 -1 25 -3
15 -6z m-333 -42 c-3 -6 -11 -11 -17 -11 -6 0 -6 6 2 15 14 17 26 13 15 -4z"/>
<path d="M1104 1797 c-9 -25 0 -62 16 -62 10 0 15 10 15 34 0 36 -21 54 -31
28z"/>
<path d="M856 1715 c-21 -16 -14 -50 14 -65 26 -14 43 10 31 43 -13 33 -22 38
-45 22z"/>
<path d="M1360 1719 c0 -6 -4 -7 -10 -4 -5 3 -10 0 -10 -7 0 -7 -3 -23 -6 -34
-7 -27 20 -39 41 -18 19 20 19 60 0 68 -8 3 -15 1 -15 -5z"/>
<path d="M686 1501 c-10 -15 4 -38 29 -49 24 -11 35 -7 35 14 0 17 -57 47 -64
35z"/>
<path d="M1517 1494 c-26 -14 -38 -44 -17 -44 20 0 60 24 60 36 0 21 -13 23
-43 8z"/>
<path d="M1200 1445 c0 -5 5 -17 10 -25 5 -8 10 -10 10 -5 0 6 -5 17 -10 25
-5 8 -10 11 -10 5z"/>
<path d="M1006 1405 c-3 -9 -5 -29 -5 -43 1 -20 3 -17 9 13 8 43 7 57 -4 30z"/>
<path d="M1108 1353 c5 -21 7 -23 10 -9 2 10 0 22 -6 28 -6 6 -7 0 -4 -19z"/>
<path d="M1220 1371 c0 -6 4 -13 10 -16 6 -3 7 1 4 9 -7 18 -14 21 -14 7z"/>
<path d="M1231 1324 c0 -11 3 -14 6 -6 3 7 2 16 -1 19 -3 4 -6 -2 -5 -13z"/>
<path d="M1105 1310 c3 -5 8 -10 11 -10 2 0 4 5 4 10 0 6 -5 10 -11 10 -5 0
-7 -4 -4 -10z"/>
<path d="M1232 1280 c0 -14 2 -19 5 -12 2 6 2 18 0 25 -3 6 -5 1 -5 -13z"/>
<path d="M992 1250 c0 -14 2 -19 5 -12 2 6 2 18 0 25 -3 6 -5 1 -5 -13z"/>
<path d="M1103 1195 c0 -8 4 -12 9 -9 4 3 8 9 8 15 0 5 -4 9 -8 9 -5 0 -9 -7
-9 -15z"/>
<path d="M1171 1130 c13 -11 32 -27 43 -37 18 -17 18 -17 7 4 -16 31 -40 53
-58 53 -12 0 -10 -5 8 -20z"/>
<path d="M1728 1614 c-4 -4 -3 -13 3 -21 13 -15 43 -18 34 -3 -4 6 -10 8 -15
5 -5 -3 -10 2 -12 11 -2 9 -6 12 -10 8z"/>
<path d="M935 1040 c-3 -5 -2 -10 4 -10 5 0 13 5 16 10 3 6 2 10 -4 10 -5 0
-13 -4 -16 -10z"/>
<path d="M1285 1040 c-3 -5 -2 -10 4 -10 5 0 13 5 16 10 3 6 2 10 -4 10 -5 0
-13 -4 -16 -10z"/>
<path d="M880 1032 c-19 -5 -40 -32 -40 -49 0 -22 29 -15 46 12 18 28 16 44
-6 37z"/>
<path d="M1340 1030 c0 -18 23 -59 37 -64 18 -7 29 22 17 42 -12 18 -54 35
-54 22z"/>
<path d="M1185 996 c-17 -12 -18 -17 -7 -41 9 -20 18 -26 32 -22 11 3 18 1 15
-3 -3 -5 0 -12 6 -16 27 -17 39 54 13 80 -19 20 -35 20 -59 2z"/>
<path d="M1097 948 c-8 -31 8 -55 38 -55 19 0 23 3 15 12 -5 6 -7 14 -4 18 3
3 3 15 -1 26 -8 28 -41 27 -48 -1z"/>
<path d="M792 940 c-21 -23 -19 -60 3 -60 22 0 46 31 43 53 -4 29 -23 32 -46
7z m28 -20 c0 -5 -5 -10 -11 -10 -5 0 -7 5 -4 10 3 6 8 10 11 10 2 0 4 -4 4
-10z"/>
<path d="M1546 851 c-4 -7 -5 -15 -2 -18 9 -9 19 4 14 18 -4 11 -6 11 -12 0z"/>
<path d="M496 1601 c-12 -5 -15 -10 -9 -14 6 -4 16 0 23 8 14 17 13 17 -14 6z"/>
<path d="M760 780 c-13 -8 -13 -10 2 -10 9 0 20 5 23 10 8 13 -5 13 -25 0z"/>
<path d="M836 728 c-4 -18 -8 -20 -18 -10 -25 25 -53 1 -41 -35 12 -35 83 6
83 47 0 27 -16 25 -24 -2z"/>
<path d="M1092 680 c-16 -35 -13 -61 7 -68 8 -3 11 0 7 6 -4 6 2 10 14 9 10
-1 22 -7 24 -13 3 -8 -7 -11 -32 -10 -20 1 -42 1 -48 -1 -18 -6 -4 -44 15 -41
9 2 22 -3 29 -12 10 -11 15 -12 18 -2 3 6 17 12 30 12 19 0 24 5 24 25 0 14
-4 25 -10 25 -5 0 -10 10 -10 23 0 33 -23 77 -40 77 -8 0 -21 -13 -28 -30z
m43 -10 c-3 -5 -10 -10 -16 -10 -5 0 -9 5 -9 10 0 6 7 10 16 10 8 0 12 -4 9
-10z"/>
<path d="M1285 488 c-4 -18 -9 -41 -11 -50 -4 -12 0 -18 10 -18 11 0 16 -10
16 -34 0 -29 -3 -33 -25 -33 -15 0 -31 9 -42 26 -27 42 -39 50 -82 57 -41 7
-91 -1 -91 -14 0 -4 24 -7 53 -7 40 0 60 -6 82 -23 17 -13 29 -27 29 -30 -1
-4 1 -13 4 -20 13 -34 -35 -81 -53 -52 -3 6 -1 10 4 10 6 0 11 9 11 20 0 23
-45 39 -63 21 -17 -17 -44 -13 -60 9 -18 26 -69 36 -107 20 -28 -11 -33 -10
-54 9 -26 25 -78 28 -96 6 -7 -8 -23 -15 -35 -15 -13 0 -32 -11 -43 -25 -16
-20 -21 -22 -26 -10 -3 9 -18 15 -40 15 -48 0 -55 -18 -9 -22 26 -2 39 -8 41
-20 4 -21 -34 -34 -53 -18 -8 6 -19 9 -25 5 -6 -4 -10 5 -9 22 2 43 13 76 28
81 10 3 12 0 8 -12 -4 -9 -2 -16 4 -16 5 0 12 7 16 16 7 19 -16 36 -37 28 -8
-4 -40 -7 -70 -8 -52 -1 -55 -3 -56 -26 0 -14 -4 -31 -8 -38 -4 -7 -5 -24 -2
-37 6 -24 32 -38 76 -39 22 -1 26 -7 33 -55 11 -82 16 -79 32 20 5 31 8 36 29
32 13 -3 30 2 39 12 15 15 18 15 33 1 8 -9 20 -16 25 -16 6 0 7 -5 4 -11 -4
-6 2 -13 14 -16 12 -3 37 -32 58 -64 53 -87 56 -85 54 64 -1 43 1 83 5 89 3 5
19 -13 35 -41 28 -48 45 -67 33 -37 -3 9 5 15 25 19 27 6 31 11 31 41 0 36
-19 53 -39 33 -14 -14 -22 -5 -11 13 14 22 90 -6 90 -34 0 -29 59 -70 77 -54
10 8 20 8 37 -2 14 -7 30 -9 38 -4 7 5 33 8 58 9 44 0 45 1 50 35 l6 35 8 -33
c5 -23 15 -34 33 -38 28 -7 71 9 79 30 4 12 13 9 42 -11 57 -38 118 -19 109
34 -6 31 20 37 38 9 9 -13 15 -28 14 -32 -1 -5 -1 -16 0 -24 1 -11 3 -12 9 -3
4 7 8 40 7 73 l0 60 32 0 c50 0 77 56 39 82 -18 12 -33 9 -40 -9 -9 -24 9 -39
29 -23 8 7 15 8 15 3 0 -16 -24 -33 -47 -33 -23 0 -30 13 -35 75 l-3 30 -18
-27 c-17 -24 -17 -29 -3 -57 9 -16 16 -44 16 -60 0 -27 -2 -30 -22 -23 -13 4
-48 7 -78 7 -51 0 -55 -2 -54 -22 1 -37 -28 -24 -41 17 -4 14 -15 33 -23 43
-9 10 -21 33 -27 50 -12 39 -50 50 -60 18 -8 -25 -32 -28 -32 -3 0 61 -17 73
-28 20z m150 -128 c14 -45 -38 -97 -71 -69 -18 15 -8 26 30 33 37 7 40 10 21
30 -19 19 -66 21 -83 4 -9 -9 -12 -6 -12 14 0 24 4 27 38 30 39 3 68 -12 77
-42z m-855 25 c11 -13 8 -15 -14 -15 -16 0 -26 5 -26 15 0 8 6 15 14 15 7 0
19 -7 26 -15z m270 -15 c0 -5 -4 -10 -10 -10 -5 0 -10 5 -10 10 0 6 5 10 10
10 6 0 10 -4 10 -10z m-260 -52 c0 -35 -2 -38 -28 -38 -54 0 -73 51 -24 68 46
15 52 11 52 -30z m261 -1 c22 -20 17 -37 -12 -37 -12 0 -19 7 -19 19 0 27 -17
35 -23 11 -7 -29 -35 -36 -52 -14 -18 25 -3 52 32 56 28 3 37 -1 74 -35z m704
34 c3 -5 1 -12 -5 -16 -5 -3 -10 1 -10 9 0 18 6 21 15 7z m-257 -44 c4 -20
-25 -34 -40 -19 -15 15 -1 44 19 40 10 -2 19 -11 21 -21z m272 -17 c-18 -12
-60 -13 -60 -2 0 5 12 13 28 18 31 12 56 -1 32 -16z m-700 -80 l0 -45 -44 50
c-47 54 -45 68 9 51 33 -10 35 -13 35 -56z"/>
<path d="M917 219 c3 -10 14 -19 25 -19 15 0 17 4 10 17 -14 24 -41 26 -35 2z"/>
<path d="M1000 230 c0 -5 -7 -10 -15 -10 -8 0 -15 -5 -15 -11 0 -5 5 -7 11 -3
6 3 15 1 19 -6 5 -7 8 -2 8 14 0 14 -2 26 -4 26 -2 0 -4 -4 -4 -10z"/>
<path d="M1022 215 c0 -16 2 -22 5 -12 2 9 2 23 0 30 -3 6 -5 -1 -5 -18z"/>
<path d="M1181 230 c-1 -11 -12 -15 -46 -13 -25 0 -43 -3 -40 -7 7 -12 55 -19
55 -8 0 5 4 7 9 3 5 -3 63 -7 129 -10 100 -4 121 -2 126 10 4 12 -4 15 -45 13
-32 -2 -53 2 -58 11 -10 15 -21 14 -42 -5 -17 -15 -49 -10 -49 8 0 6 -6 6 -14
-1 -11 -9 -15 -9 -19 1 -4 9 -6 9 -6 -2z"/>
<path d="M1477 227 c-3 -7 -1 -20 4 -28 5 -8 9 -9 9 -2 0 12 17 12 36 0 6 -3
14 -4 18 0 13 13 5 21 -20 21 -15 0 -30 5 -34 12 -5 9 -9 8 -13 -3z"/>
<path d="M1611 213 c-1 -19 4 -23 28 -23 17 0 33 5 36 10 9 15 -23 24 -39 11
-11 -10 -15 -8 -19 6 -4 14 -5 13 -6 -4z"/>
<path d="M1040 208 c0 -4 3 -8 8 -9 4 0 15 -2 24 -4 10 -2 15 2 12 9 -5 13
-44 16 -44 4z"/>
<path d="M1562 200 c0 -14 2 -19 5 -12 2 6 2 18 0 25 -3 6 -5 1 -5 -13z"/>
<path d="M1580 211 c0 -6 5 -13 10 -16 6 -3 10 1 10 9 0 9 -4 16 -10 16 -5 0
-10 -4 -10 -9z"/>
</g>
</svg>
